<?xml version="1.0" standalone="no"?>
<!DOCTYPE svg PUBLIC "-//W3C//DTD SVG 20010904//EN"
 "http://www.w3.org/TR/2001/REC-SVG-20010904/DTD/svg10.dtd">
<svg version="1.0" xmlns="http://www.w3.org/2000/svg"
 width="256.000000pt" height="256.000000pt" viewBox="0 0 256.000000 256.000000"
 preserveAspectRatio="xMidYMid meet">

<g transform="translate(0.000000,256.000000) scale(0.100000,-0.100000)"
fill="#000000" stroke="none">
<path d="M251 2059 c-65 -33 -98 -67 -130 -139 -20 -43 -21 -64 -21 -603 0
-542 1 -558 21 -601 44 -94 135 -156 236 -159 l58 -2 0 45 0 45 -55 6 c-31 3
-65 11 -76 17 -35 19 -83 80 -89 114 -3 18 -5 272 -3 564 l3 530 24 36 c13 19
40 46 59 59 l36 24 670 3 c369 1 806 -1 972 -5 l300 -8 41 -27 c80 -53 78 -35
78 -623 -1 -286 -4 -537 -8 -557 -16 -76 -98 -138 -182 -138 l-45 0 0 -46 0
-47 69 5 c107 8 178 57 234 162 22 41 22 46 25 583 2 350 -1 556 -7 581 -17
60 -67 128 -123 163 l-51 33 -176 7 c-97 4 -541 8 -987 8 l-811 1 -62 -31z"/>
<path d="M648 1172 c-229 -228 -268 -272 -268 -297 0 -25 39 -68 263 -292 144
-145 272 -266 285 -269 12 -4 32 0 45 9 13 8 136 127 275 263 204 202 254 255
259 282 6 33 0 39 -263 303 -231 231 -274 269 -299 269 -25 0 -68 -38 -297
-268z m430 -166 c81 -82 102 -109 102 -132 0 -41 -193 -234 -235 -234 -23 0
-49 20 -132 103 -138 138 -138 138 -3 269 135 132 133 132 268 -6z"/>
<path d="M1479 1342 c-132 -131 -133 -133 -6 -260 50 -51 100 -98 109 -103 32
-18 66 3 162 100 76 78 96 104 96 127 0 41 -193 234 -234 234 -22 0 -49 -21
-127 -98z"/>
<path d="M1807 1002 c-131 -131 -131 -132 1 -264 129 -129 125 -129 259 5 134
134 134 130 5 259 -132 132 -133 132 -265 0z"/>
<path d="M1472 666 c-71 -71 -102 -110 -102 -127 0 -16 31 -54 103 -126 82
-82 109 -103 131 -103 23 0 49 20 127 96 53 53 100 107 104 121 8 32 -3 47
-107 156 -117 121 -121 121 -256 -17z"/>
</g>
</svg>
