<?xml version="1.0" encoding="utf-8"?>

<!DOCTYPE svg PUBLIC "-//W3C//DTD SVG 1.1//EN" "http://www.w3.org/Graphics/SVG/1.1/DTD/svg11.dtd">
<svg version="1.1" id="Layer_1" xmlns="http://www.w3.org/2000/svg" xmlns:xlink="http://www.w3.org/1999/xlink" x="0px" y="0px"
	 viewBox="0 0 1464.15 1701.506" enable-background="new 0 0 1464.15 1701.506" xml:space="preserve">
<g>
	<path d="M538.54,56.034c0.904-1.711-0.401-4.197,1.603-5.281c0.205,0.401,0.611,1.202,0.812,1.603
		c0.031,0.308,0.082,0.92,0.108,1.228c3.061,5.293,1.733,8.177,2.625,14.142c2.633,3.234,3.227,5.936,6.262,9.391
		c5.966,1.29,11.01-1.143,12.873-1.5c2.671-1.733,1.622-0.909,5.661-3.478c8.013-0.794,3.48,0.828,14.147,0.005
		c17.973,2.48,18.157,4.719,22.3,8.42c1.382,0.652,1.567,2.199,1.747,3.555c-0.344,0.452-0.688,0.899-1.043,1.33
		c-0.272,0.031-0.817,0.082-1.094,0.108c-3.209,1.492-5.247,0.454-11.327,2.615c-2.586,1.084-9.472,2.204-11.784,2.512
		c-0.001,0.001-10.062,5.32-10.377,5.507c-0.252,0.021-0.755,0.067-1.007,0.092c-4.927,2.837-9.949,2.498-14.281,2.589
		c-1.351,0.853-3.185,0.652-4.408,1.587c0.134,3.041-0.668,6.072-0.149,9.093c0.123,2.204,1.151,4.562-0.349,6.539
		c-0.015,0.283-0.046,0.837-0.067,1.115c-0.966,0.832-2.116,1.372-3.308,1.777c-2.034-1.161-2.928-3.478-4.824-4.777
		c-0.308,0.134-0.935,0.411-1.248,0.545c-1.61-5.22,1.332-3.399-0.467-12.396c-2.517-1.515-5.389-0.236-8.106-0.349
		c-7.577,1.832-12.255,0.508-14.635,0.277c-1.284-0.678-2.697-0.997-4.135-1.017c-0.704-0.298-1.408-0.58-2.096-0.878
		c-0.529-0.021-1.048-0.041-1.557-0.057c-0.647-0.442-1.284-0.878-1.906-1.325c-1.571,0.409-12.513,0.478-14.594,0.015
		c-0.966,0.097-10.739,0.529-13.577,0.909c-0.339-1.12-0.473-2.291-0.534-3.452c0.539-0.488,1.074-0.976,1.623-1.459
		c0.005-0.267,0.015-0.807,0.026-1.079c5.489-9.236,27.987-14.374,31.516-15.401c4.256-1.113,4.951,0.813,11.291,1.952
		c3.298,0.925,6.637-0.2,9.894-0.755c0.755-0.509,1.5-1.038,2.24-1.587c0.021-0.277,0.072-0.832,0.092-1.11
		c2.59-7.29,3.357-6.836,2.882-12.786c-0.488-1.315-0.416-2.733-0.529-4.104C538.308,58.834,538.411,57.406,538.54,56.034z"/>
	<path d="M671.019,312.187c0.199,0.269,1.332,2.255,5.723,7.947c10.626,1.65,9.725-0.326,16.552-5.091
		c1.89-0.128,3.74,0.247,5.497,0.95c2.91,1.224,4.067-0.27,9.981,2.05c1.073,0.246,13.964,5.115,15.416,8.178
		c-0.252,0.046-0.75,0.149-1.002,0.195c-0.478,0.966-1.269,1.649-2.373,1.7c0,0.303,0.005,0.914,0.005,1.223
		c-0.272,0.113-0.817,0.339-1.089,0.452c-0.628-0.187-12.054,1.941-12.658,2.132c-1.685,0.128-3.37,0.113-5.044,0.103
		c-4.816,3.244-3.689,3.779-12.334,7.587c-4.177,0.999-7.898,3.071-9.036,1.212c-0.894,0.647-1.921,1.002-3,1.13
		c-0.488,4.063,1.325,7.906,1.063,11.959c-0.848,1.377-2.024,2.502-3.38,3.375c-1.079-0.087-2.199-0.159-3.056-0.878
		c-1.423-0.658-1.603-2.337-2.199-3.601c-0.441-2.807-1.181-6.927-2.235-9.57c-1.125,0.067-2.245,0.149-3.344,0.365
		c-0.231,0.118-0.683,0.354-0.909,0.478c-1.805,0.379-11.019,0.601-13.916-0.344c-9.352-3.507-0.903-3.253-15.925-1.135
		c-5.941,0.83-4.214,0.117-5.214-0.812c-0.267,0-0.806-0.005-1.079-0.005c-0.211-0.257-0.632-0.771-0.843-1.022
		c-0.431-0.01-1.294-0.031-1.726-0.036c0.521-2.042,6.006-10.36,20.189-18.504c4.13-0.441,6.344,4.353,13.315,1.988
		c5.225-2.722,3.694-0.946,8.959-10.973c0.539-4.495-1.33-8.99-0.123-13.433C669.114,290.576,671.098,302.76,671.019,312.187z"/>
	<path d="M493.195,532.823c0.354,0.041,1.063,0.118,1.418,0.154c0.062,0.303,0.18,0.909,0.241,1.212
		c0.606,1.146,1.315,2.24,1.854,3.432c0.712,4.771-2.058,13.028,8.122,18.36c7.554-0.253,7.85,1.161,16.387-4.022
		c4.157-1.175,24.275,3.508,33.648,11.908c0.231,1.038,0.462,2.08,0.642,3.144c-0.467,0.432-0.925,0.873-1.377,1.32
		c-2.034,0.031-4.079,0.031-6.087-0.308c-9.013,1.143-15.991-1.354-23.23,2.825c-0.252,0.021-0.75,0.067-1.002,0.087
		c-0.519,0.308-1.033,0.622-1.541,0.945c-0.252,0.031-0.745,0.098-0.997,0.128c-7.608,3.229-9.584,2.397-14.62,2.455
		c-2.461,2.544-0.366,10.624-1.079,17.82c-0.329,0.164-0.997,0.488-1.331,0.652c-0.719,0.021-1.428,0.051-2.127,0.092
		c-0.771-0.919-1.479-1.87-2.168-2.836c-0.031-0.247-0.098-0.745-0.134-0.991c-1.16-2.543-0.549-1.735-2.353-5.209
		c-0.221-1.089-0.488-2.158-0.719-3.231c-1.002-1.875-2.363-3.488-4.392-4.269c-11.668,2.825-22.426,0.596-23.718,0.128
		c-7.276,1.809-7.455-0.179-23.379,4.659c-0.452-0.467-0.899-0.93-1.346-1.382c0.209-2.311-2.207-4.291,11.014-13.474
		c8.121-5.372,7.524-2.81,12.858-6.73c9.279-3.488,3.414,2.383,21.678-1.197c2.735-2.34,2.507-3.442,4.51-8.337
		C495.49,544.155,491.325,542.135,493.195,532.823z"/>
	<path d="M792.376,568.33c0.303,0,0.914,0,1.223,0c3.535,8.702,1.325,12.256,2.825,16.659c2.71,3.879,0.149,0.742,4.146,7.248
		c0.39,1.366,1.341,2.332,2.687,2.805c1.521,0,3.046-0.005,4.577-0.031c9.024-5.031,6.257-7.512,17.029-0.848
		c8.13,3.541,18.212,15.144,23.317,22.762c0,0.493,0.01,1.002,0.041,1.516c-0.437,0.411-0.858,0.827-1.264,1.259
		c-0.283,0-0.848,0-1.13,0c-0.211,0.262-0.627,0.786-0.832,1.053c-0.283-0.015-0.853-0.046-1.135-0.062
		c-1.696-1.018-1.234-0.826-3.678-1.582c-0.688-0.467-1.367-0.935-2.019-1.413c-0.241-0.031-0.724-0.092-0.966-0.123
		c-1.975-1.052-2.74-1.388-4.69-2.435c-0.257-0.021-0.765-0.067-1.017-0.087c-0.236-0.2-0.699-0.596-0.93-0.796
		c-1.341-0.293-2.527-0.961-3.678-1.664c-1.876-0.399-3.212-0.96-6.56-1.675c-4.523,2.585-1.065,0.453-6.226,3.539
		c-1.84,0.521-6.015,2.192-13.146,2.717c0.185,10.862-0.777,12.143-1.628,15.283c-0.714,0.56-1.438,1.094-2.168,1.623
		c-0.575,0-1.14,0.01-1.695,0.026c-0.791-0.889-1.541-1.803-2.193-2.779c-0.135-1.002-1.67-10.155-3.113-12.627
		c-1.166-0.164-2.342-0.026-3.426,0.396c-10.366,0.087-10.281,0.778-17.969-1.88c-3.961,1.644-6.396,5.332-9.745,7.819
		c-2.019,2.8-4.721,4.962-7.161,7.351c-0.329,0.159-0.642,0.329-0.95,0.509c-0.745-0.673-1.603-1.002-2.548-0.545
		c-0.385-0.288-0.755-0.565-1.115-0.832c-0.344,0.026-1.038,0.077-1.382,0.098c0.666-4.903,3.549-11.726,4.68-13.762
		c0.021-0.257,0.072-0.771,0.092-1.027c0.216-0.216,0.647-0.652,0.863-0.868c2.821-7.985,9.128-15.454,15.334-19.896
		c1.161-0.026,2.332-0.01,3.509,0.041c7.533,4.195,13.733,3.523,19.259-5.949c0.031-0.252,0.087-0.75,0.118-0.997
		c3.78-7.021,0.856-3.405,2.096-19.531C791.945,569.301,792.232,568.654,792.376,568.33z"/>
	<path d="M915.341,746.796c2.849,2.498,2.72,12.652,2.769,14.903c0.029,0.053,5.204,9.396,5.204,9.396
		c5.192,2.417,7.127-0.115,11.425-4.485c1.012,0,2.034,0.01,3.067,0.041c2.61,1.3,5.152,2.733,7.777,4.007
		c0.252,0.031,0.745,0.098,0.991,0.128c6.664,3.718,18.386,10.842,22.886,17.004c-0.462,0.807-0.909,1.623-1.331,2.456
		c-0.596-0.01-1.181-0.01-1.752,0.005c-0.01,0.288-0.036,0.868-0.051,1.156c-17.856-3.385-24.35-5.183-24.35-5.183
		c-17.568,8.749-9.408,4.653-18.118,7.736c-0.154,0.175-0.457,0.534-0.606,0.714c1.033,3.694,0.601,7.572,0.462,11.358
		c-0.884,0.781-1.798,1.531-2.764,2.204c-0.56-0.01-1.115-0.01-1.649,0c-0.976-0.678-1.89-1.423-2.759-2.204
		c-0.307-2.763-1.843-6.525-1.551-10.613c-2.643-1.857-3.023-0.684-16.074-1.166c-7.83-2.307-4.235-1.497-6.729-2.399
		c-4.453,2.202-12.385,9.654-13.387,10.387c-0.216-0.277-0.637-0.827-0.848-1.099c-0.493,0.159-0.976,0.308-1.454,0.452
		c-0.308-0.524-0.581-1.053-0.817-1.582c-0.616-0.015-1.218-0.015-1.803-0.005c0.005-0.601,0.021-1.192,0.051-1.767
		c1.359-2.516,1.947-3.653,1.947-3.653c0.031-0.247,0.103-0.735,0.134-0.976c0.51-1,8.228-19.864,16.88-22.32
		c1.537,0.539,3.232,1.701,5.923,2.964c6.385,0.78,2.51,0.626,7.238-0.544c4.79-2.71,4.2-3.556,5.795-6.339
		c0.031-0.247,0.082-0.745,0.113-0.997c0.966-2.086,2.913-3.94,2.548-6.421c-0.976-8.617-0.63-7.081,0.098-11.548
		C914.792,747.998,915.156,747.197,915.341,746.796z"/>
	<path d="M382.63,845.181c2.966,4.152,1.833,6.598,3.308,16.233c0.74,1.546,1.783,2.908,2.784,4.3
		c0.108,0.031,0.329,0.092,0.437,0.123c1.079,1.428,2.384,2.661,3.611,3.966c3.865,1.016,13.696-1.155,16.017-2.378
		c0.236-0.051,0.709-0.149,0.945-0.2c1.327-0.715,4.327-2.523,6.848-1.808c2.312,0.56,4.721,0.17,7.058,0.565
		c8.291-0.882,16.922,1.225,25.197,3.462c2.111,0.699,3.231,2.62,4.762,4.079c-0.216,0.812-0.396,1.664-0.051,2.491
		c-0.375,0.318-0.74,0.658-1.094,1.007c-9.644,1.968-4.091,0.277-11.363,2.748c-2.935,1.379-3.11,1.299-4.11,1.459
		c-0.514,0.298-1.022,0.611-1.531,0.93c-0.321,0.04-3.496,1.119-6.195,1.706c-0.514,0.267-1.017,0.55-1.521,0.842
		c-3.57,0.137-3.741,0.327-5.158,1.007c-0.247,0.041-0.735,0.118-0.981,0.154c-1.424,0.726-6.446,3.174-8.743,3.596
		c-0.509,0.272-1.017,0.55-1.521,0.842c-1.379,0.191-7.664,2.006-16.968,2.199c-0.421,0.411-0.837,0.827-1.248,1.253
		c-0.074,11.962,1.763,14.91-1.248,17.584c-1.433,0.211-2.866,0.39-4.274,0.729c-0.735-0.955-1.423-1.937-2.152-2.882
		c-0.827-2.363-0.344-4.891-0.914-7.284c-0.527-1.98-1.007-4.115-1.315-6.149c-0.555-0.591-1.11-1.166-1.654-1.736
		c-2.106,0.051-4.284-0.288-6.313,0.416c-4.934,0.065-10.575,0.767-18.401-1.608c-10.651-2.809-5.03-0.009-14.004-1.783
		c-7.789-0.322-3.855-0.429-10.027-1.315c-3.796-0.76-7.706-0.098-11.548-0.385c-0.056-0.591-0.108-1.171-0.154-1.736
		c-0.324-0.509-0.632-0.986-0.94-1.464c0.93-0.997,1.366-2.276,1.896-3.488c1.453-1.155,2.701-1.708,6.036-3.478
		c0.247-0.031,0.74-0.087,0.981-0.118c0.977-0.558,2.14-1.146,3.647-1.911c0.206-0.039,5.973-2.063,8.687-2.841
		c6.832-2.008,8.688-0.867,11.877-2.774c9.021-2.181,12.844,2.823,24.226,0.303c6.818-6.731,4.179-14.398,3.529-17.065
		C380.531,852.789,380.502,844.6,382.63,845.181z"/>
	<path d="M1012.591,905.279c0.447-0.206,0.914-0.38,1.402-0.529c2.846,5.81,2.254,12.36,3.632,15.622
		c1.28,2.943,5.195,8.057,5.892,9.057c4.848,1.57,10.143-0.499,13.49-1.125c6.885-3.651,3.434-2.378,19.952-1.325
		c19.845,5.149,16.533,3.725,22.007,8.928c-0.082,1.038-0.134,2.086-0.18,3.144c-1.906,0.539-3.863,0.781-5.831,0.729
		c-0.524,0.303-1.033,0.617-1.536,0.94c-0.678,0.031-1.346,0.067-1.983,0.139c-6.354,2.623-13.553,3.943-18.473,4.058
		c-5.604,4.095-17.398,7.205-21.442,6.57c-1.151-0.134-2.353-0.688-3.442-0.046c-0.55,0.026-1.084,0.067-1.603,0.118
		c-3.311,3.615,1.397,7.865-1.14,17.373c-1.341,0.431-2.682,0.858-3.95,1.469c-1.947-0.669-1.953-0.532-4.228-1.942
		c-0.28-2.617-1.612-13.264-3.118-15.411c-6.594,0.091-11.666,2.83-22.87,0.241c-2.421-0.379-6.345-2.435-11.014-1.747
		c-10.042,1.175-18.963,0.008-19.973-0.442c-2.219,0.493-4.495,0.509-6.75,0.452c0.026-0.693,0.067-1.377,0.118-2.044
		c-0.457-0.01-1.366-0.036-1.824-0.046c0.36-0.801,0.745-1.593,1.146-2.363c0.021-0.272,0.057-0.812,0.072-1.084
		c1.816-1.43,19.963-11.959,28.516-12.534c7.743-4.401,9.943-2.652,13.382-1.592c7.029,1.794,12.002-0.225,14.348-0.416
		c10.151-5.815,3.366-18.551,5.312-22.947C1012.56,907.437,1012.575,906.353,1012.591,905.279z"/>
	<path d="M310.039,1069.223c2.297-1.281,3.939,12.912,4.474,15.139c1.844,3.118,4.372,5.841,7.341,7.916
		c3.315,0.677,5.963,0.969,9.853-0.026c2.245-1.274,4.146-3.021,6.18-4.577c3.247-0.432,6.098,1.387,9.211,1.906
		c5.419,0.993,8.32,4.188,16.695,9.123c-0.005,0.252-0.021,0.755-0.026,1.007c-1.074,1.454-2.075,2.969-3.159,4.428
		c-21.815-0.09-9.356,2.091-26.353,7.551c-4.347,1.167-7.362,0.724-10.875,1.742c-1.875,0.704-1.084,2.877-1.449,4.413
		c-0.71,7.352,1.083,1.377,0.195,9.766c-0.647,0.961-1.392,1.854-2.163,2.733c-0.57-0.021-1.13-0.031-1.69-0.016
		c-1.587-0.796-2.533-2.271-3.195-3.842c-0.544-4.703-2.143-7.032-3.354-10.618c-2.714,0.128-7.404,1.195-8.404,1.521
		c-20.279,0.442-10.554-6.251-27.632,2.584c-0.729,0.072-1.449,0.164-2.168,0.277c-1.94-1.25-3.019-1.667-4.274-3.17
		c0.236-0.683,0.539-1.31,0.827-1.942c4.366-4.901,6.92-11.594,12.822-14.98c3.349-2.24,3.558-4.9,9.267-4.259
		c0.231,0.226,0.683,0.668,0.914,0.889c7.133,1.832,10.816,1.608,15.18-4.777c0.026-0.241,0.077-0.729,0.108-0.971
		c5.323-9.856,0.824-6.465,0.976-20.327C309.279,1070.07,309.51,1069.577,310.039,1069.223z"/>
	<path d="M1128.75,1153.614c0.329-0.534,0.693-1.038,1.089-1.516c0.875,0.384,1.114,2.237,2.414,5.23
		c0.329,12.615,0.745,10.53,6.945,17.183c6.096,0.034,9.759,0.734,18.545-4.567c9.313-1.218,24.844,1.984,31.85,4.978
		c0.462,0.041,0.945,0.098,1.443,0.18c4.243,2.33,2.462,0.47,5.384,4.577c-0.283,0.842-0.437,1.721-0.56,2.625
		c-10.585,2.394-4.251-0.933-19.187,2.82c-2.404,0.36-4.777,0.853-7.156,1.305c-20.071,10.037-22.839,6.634-27.894,8.163
		c-0.56,0.698-1.084,1.428-1.582,2.183c-0.041,1.289-0.123,2.604-0.401,3.889c1.12,3.818,0.988,2.324,1.834,9.17
		c-0.388,2.363-3.471,4.502-7.87,3.103c-0.575-0.416-1.125-0.791-1.685-1.151c-0.134-0.267-0.39-0.796-0.524-1.058
		c-1.121-6.271-0.608-3.043-0.098-9.195c-0.688-1.767-1.474-3.514-2.707-4.957c-9.37,0.561-15.296,1.384-24.298-1.402
		c-2.096-0.673-4.433-0.452-6.334-1.67c-7.171,1.337-16.658-0.552-21.873,1.777c-1.505,0.283-3.041,0.313-4.546,0.478
		c-0.591-0.668-1.197-1.294-1.68-2.003c-0.082-0.786,0.051-1.541,0.041-2.307c0.697-1.881,17.038-11.96,28.737-14.445
		c0.493-0.303,1.002-0.591,1.526-0.868c1.31-0.221,2.61-0.519,3.94-0.699c0.185-0.093,0.56-0.277,0.75-0.37
		c5.572,1.693,9.819,4.282,19.531,1.233c1.921-1.438,2.913-3.704,4.253-5.625c0.426-1.896,0.178-0.689,0.781-3.688
		C1128.4,1158.534,1127.533,1160.339,1128.75,1153.614z"/>
	<path d="M239.456,1178.57c0.699-0.452,1.433-0.421,2.142,0.005c-0.026,0.344-0.072,1.027-0.092,1.372
		c0.241,0.216,0.735,0.657,0.981,0.873c1.962,10.989,0.393,7.611,2.003,11.471c0.041,0.247,0.123,0.735,0.159,0.981
		c1.485,3.149,4.68,4.788,6.853,7.387c0.744,0.122,0.869,0.07,3.082,0.786c6.636,1.533,9.422-3.204,12.329-5.44
		c3.756,0.041,8.718,2.911,9.73,3.57c0.272,0.036,0.817,0.108,1.089,0.139c4.654,3.822,8.897,8.188,13.973,11.471
		c0.164,0.277,0.483,0.822,0.642,1.099c0.01,0.252,0.036,0.76,0.046,1.012c-0.581,0.884-1.12,1.813-1.834,2.615
		c-2.192,1.028-7.147-1.194-15.411-0.817c-9.701,7.055-16.23,6.178-22.336,8.029c-0.498,2.096-0.01,4.187,0.904,6.098
		c1.036,5.922,0.71,3.421,0.128,7.418c-1.443,1.017-3.206,1.325-4.896,1.68c-0.755-0.771-1.485-1.536-2.188-2.322
		c-2.417-9.416-1.582-6.238-3.745-12.303c-1.446,0.437-8.968,1.37-16.552,1.058c-10.683-3.124-4.979-4.214-19.007-0.873
		c-0.699-0.652-1.408-1.274-2.142-1.855c-0.447-0.765-2.455-1.366-1.464-2.348c9.82-10.437,3.479-7.636,16.341-17.954
		c0.652-0.01,1.31,0.005,1.973,0.041c1.943,1.439,2.531,1.317,4.793,3.005c3.457,0.12,4.749,0.272,7.659-0.534
		c9.797-6.22,5.388-15.224,4.644-20.23C239.307,1182.191,239.574,1180.378,239.456,1178.57z"/>
	<path d="M1241.893,1322.669c1.199,2.717,2.628,7.123,2.389,10.048c-0.658,9.76,4.079,10.63,5.836,14.748
		c18.145,6.609,9.53-11.018,26.779,0.103c0.241,0.036,0.724,0.108,0.966,0.139c8.977,4.927,7.333,2.159,20.492,17.892
		c0.503,0.606,0.293,1.479,0.442,2.245c-0.221,0.324-0.663,0.966-0.884,1.289c-0.478,0.041-0.94,0.113-1.377,0.206
		c-1.819,1.232-3.528-2.08-5.384-1.459c-3.088-2.101-16.33-7.043-19.449-4.721c-14.188,6.582-14.83,4.124-19.022,5.641
		c-0.416,0.324-0.822,0.663-1.207,1.022c-0.322,13.208,0.407,4.786-0.581,13.587c-0.385,0.545-0.74,1.115-1.166,1.639
		c-0.899,0.098-1.798,0.077-2.671,0.118c-4.548-2.483-3.126-12.211-6.54-15.401c-11.731-0.859-5.191,2.616-25.629-2.152
		c-9.303,5.189-9.814,4.603-17.086,11.748c-0.92-0.134-1.803-0.37-2.692-0.509c-0.555-0.822-1.177-1.593-1.67-2.414
		c0.617-2.154,9.666-22.121,22.88-27.781c0.801-0.015,1.613-0.005,2.45,0.036c9.436,5.15,17.749,3.429,22.32-6.452
		c0.793-5.416,1.069-2.111-0.622-10.726C1239.84,1329.238,1240.157,1323.6,1241.893,1322.669z"/>
	<path d="M179.363,1417.617c0.524-0.442,1.058-0.848,1.592-1.248c0.421,0.498,0.853,1.012,1.289,1.541
		c0.422,1.815,0.808,2.231,1.413,3.858c1.557,4.782,0.375,10.659,4.269,14.492c0.75,1.441,1.758,3.139,3.015,4.166
		c0.365,0.545,0.729,1.104,1.089,1.7c5.85,0.286,4.85-0.855,9.745-1.089c0.221-0.236,0.663-0.704,0.884-0.94
		c0.267-0.015,0.807-0.046,1.074-0.062c1.207-0.693,2.445-1.32,3.673-1.973c2.753,0.051,5.697-0.519,8.25,0.832
		c14.661,2.819,23.569,9.446,27,14.836c0.128,1.71-0.842,3.092-2.348,3.837c-22.503,1.207-24.358-0.519-28.814,1.89
		c-1.493,0.293-3.671,1.146-4.675,1.577c-9.863,2.57-14.437-0.271-14.661,10.654c0.519,0.462,1.043,0.95,1.572,1.459
		c0.226,4.089,0.875,5.566-0.113,7.86c-1.017,0.894-2.327,1.387-3.36,2.276c-2.152-0.041-4.099-0.966-5.63-2.43
		c-0.884-2.271-0.555-4.711-0.663-7.074c-2.052-3.848-2.875-4.708-3.206-6.534c-0.565-0.468-1.115-0.94-1.721-1.305
		c-11.031,1.059,5.691,1.747-22.459,0.904c-1.402,0.632-2.841,1.197-4.212,1.906c-2.543,0.54-7.335,2.555-9.74,3.57
		c-6.076,0.742-4.571,2.473-10.444,2.661c-0.837-0.457-1.521-1.13-2.26-1.69c-0.063-8.908,17.062-22.714,25.069-26.687
		c5.724-2.896,4.825-1.4,10.778-0.673c1.793,0.524,3.606-0.195,5.414-0.2c1.731-0.082,3.447-0.545,4.932-1.438
		c0.252-0.036,0.755-0.098,1.007-0.128C183.7,1430.687,180.022,1435.577,179.363,1417.617z"/>
	<path d="M1365.069,1562.543c0.457,0.652,0.92,1.341,1.377,2.045c1.333,4.882,1.598,3.146,1.659,12.365
		c0.983,1.92,0.922,2.084,4.521,7.51c8.607,0.304,12.234-3.87,15.663-4.839c3.185-0.827,6.524,0.144,9.724-0.668
		c1.834-0.462,3.673,0.164,5.512,0.354c14.211,1.74,15.15,4.122,16.942,6.421c-0.01,1.032-0.005,2.086,0.01,3.154
		c-3.982,1.743-16.413,2.463-18.853,5.235c-0.488,0.015-0.95,0.067-1.387,0.149c-0.858,0.493-1.716,0.971-2.574,1.459
		c-0.257,0.016-0.781,0.046-1.043,0.062c-10.95,5.936-15.211,6.866-20.615,7.68c-0.529,0.308-1.043,0.637-1.536,0.986
		c-0.283-0.005-0.848-0.021-1.125-0.026c-2.532,1.998-0.529,5.435-1.484,8.122c0.769,3.388,0.129,4.942-0.216,6.632
		c-0.534,0.76-1.089,1.516-1.644,2.281c-1.104-0.041-2.199,0-3.272-0.108c-3.402-3.539-1.405-8.251-4.346-15.298
		c-10.63-1.901-0.146,1.78-25.865-3.807c-1.87-1.084-4.048-0.878-6.103-0.925c-3.21-2.12-20.068-1.974-23.502-1.13
		c-0.267-0.118-0.796-0.354-1.063-0.473c0.015-0.596,0.046-1.166,0.092-1.716c-0.288-0.205-0.863-0.616-1.151-0.822
		c0.488-1.854,0.704-4.223,2.959-4.7c9.096-4.793,24.769-9.401,34.844-8.486c6.338,2.842,9.804,1.775,14.707,1.988
		c3.185,0.401,4.089-3.283,5.533-5.338C1366.93,1571.193,1360.262,1571.222,1365.069,1562.543z"/>
	<path d="M105.482,1588.29c3.293,0.426,3.066,5.07,4.603,15.935c1.325,2.204,2.815,4.31,4.464,6.293
		c5.167,1.744,10.191-0.404,15.216-1.495c2.057-1.205,2.474-1.167,5.245-2.445c13.525-0.479,36.707,3.773,37.711,4.043
		c-0.021,0.668-0.041,1.351-0.057,2.06c0.308,0.2,0.925,0.601,1.228,0.801c-0.565,0.714-1.151,1.428-1.741,2.152
		c0.185,0.293,0.555,0.873,0.745,1.166c-2.72,0.836-3.597,0.708-9.2,2.399c-0.209,0.055-8.74,2.888-12.339,3.935
		c-3.577,0.907-5.614,0.658-8.188,2.892c-0.288,0.01-0.858,0.031-1.146,0.046c-0.437,0.272-0.878,0.565-1.315,0.884
		c-3.812,0.453-12.49,5.325-19.896,5.25c-1.111-0.011-1.103-0.002-4.844,0.606c-0.329,0.149-0.986,0.452-1.315,0.601
		c-0.565,2.106-0.55,4.294-0.519,6.478c0.236,0.005,0.704,0.021,0.94,0.026c0.788,6.829,0.352,1.385,0.036,8.425
		c-0.642,0.755-1.243,1.557-1.788,2.409c-1.017,0.01-2.034-0.016-3.041-0.108c-0.596-0.226-1.192-0.421-1.793-0.58
		c-0.524-0.878-0.997-1.767-1.454-2.651c-1.614-8.609-1.031-10.647-3.344-13.202c-1.243,0.026-2.502,0.046-3.714,0.375
		c-2.887,1.099-6.015,0.555-9.021,0.909c-5.271,0.067-10.449-1.104-15.689-1.495c-0.231-0.118-0.683-0.365-0.914-0.483
		c-0.819-0.128-17.881-0.888-28.649-0.771c-0.19-0.884-0.257-1.762-0.015-2.61c-0.673-0.031-1.346-0.041-2.014-0.031
		c0.082-1.387,0.334-2.733,0.616-4.063c1.197-0.832,2.522-1.423,3.853-1.983c0.247-0.026,0.75-0.082,1.002-0.108
		c0.503-0.344,1.017-0.663,1.526-0.966c0.252-0.021,0.755-0.062,1.012-0.082c1.532-0.843,1.641-0.758,3.704-1.88
		c0.226-0.051,0.668-0.159,0.894-0.211c1.192-0.704,2.445-1.284,3.668-1.916c0.262-0.01,0.781-0.041,1.043-0.057
		c0.503-0.339,1.007-0.663,1.51-0.961c0.247-0.036,0.74-0.108,0.986-0.144c3.394-1.604,3.812-1.588,8.265-2.24
		c1.7-0.782,1.468-0.656,2.538-0.812c7.254-4.424,11.245,2.054,25.31-1.479c1.341-0.827,2.26-2.101,3.164-3.339
		c0.578-2.775,0.713-3.246,2.558-7.793C105.157,1599.026,103.12,1593.473,105.482,1588.29z"/>
</g>
</svg>
